<svg xmlns="http://www.w3.org/2000/svg" viewBox="187 421 672 178" role="img" aria-label="RankedTag — SEO, AI SEO, AEO &amp; GEO agency for B2B SaaS">
  <title>RankedTag</title>
  <rect x="246" y="421" width="119" height="118" fill="#F83000"/>
  <rect x="187" y="480" width="59" height="59" fill="#F4EFE7"/>
  <rect x="246" y="539" width="60" height="60" fill="#F4EFE7"/>
  <rect x="246" y="480" width="59" height="59" fill="#98A8F8"/>
  <path fill="#F4EFE7" fill-rule="evenodd" d="M 825 459 L 815 464 L 809 472 L 809 474 L 807 478 L 807 488 L 808 489 L 809 494 L 817 503 L 824 506 L 835 506 L 836 505 L 842 504 L 845 502 L 846 503 L 846 510 L 845 511 L 845 513 L 841 517 L 839 518 L 834 518 L 833 519 L 832 518 L 828 518 L 826 517 L 822 513 L 822 512 L 810 512 L 810 514 L 813 520 L 817 524 L 825 528 L 841 528 L 842 527 L 845 527 L 854 521 L 856 518 L 856 516 L 858 512 L 858 508 L 859 507 L 859 460 L 849 460 L 849 464 L 848 465 L 846 465 L 841 461 L 839 461 L 835 459 Z M 824 472 L 831 469 L 836 469 L 842 472 L 846 477 L 847 485 L 845 490 L 840 495 L 838 495 L 837 496 L 829 496 L 825 494 L 821 490 L 820 488 L 820 478 Z M 763 465 L 760 470 L 759 474 L 771 474 L 774 470 L 779 468 L 782 468 L 783 469 L 786 469 L 790 473 L 791 475 L 791 479 L 790 480 L 768 480 L 761 483 L 757 489 L 757 499 L 760 504 L 764 507 L 766 507 L 770 509 L 776 509 L 777 508 L 785 507 L 791 503 L 793 504 L 794 508 L 803 508 L 803 473 L 800 467 L 794 462 L 787 459 L 776 459 L 775 460 L 769 461 Z M 791 489 L 791 491 L 789 495 L 786 498 L 782 500 L 774 500 L 769 496 L 769 491 L 773 488 L 785 488 L 787 487 Z M 542 465 L 537 462 L 536 460 L 532 460 L 531 459 L 523 459 L 522 460 L 519 460 L 513 463 L 512 465 L 510 465 L 509 464 L 509 461 L 508 460 L 499 460 L 499 508 L 512 508 L 512 479 L 513 478 L 513 476 L 516 472 L 519 470 L 523 470 L 524 469 L 525 470 L 528 470 L 531 472 L 534 478 L 534 507 L 535 508 L 547 508 L 547 477 L 546 476 L 545 470 Z M 453 464 L 449 469 L 448 474 L 460 474 L 460 473 L 464 469 L 471 468 L 476 470 L 479 473 L 479 479 L 478 480 L 457 480 L 456 481 L 453 481 L 447 486 L 445 490 L 445 497 L 448 504 L 455 508 L 465 509 L 466 508 L 471 508 L 480 503 L 482 505 L 483 508 L 492 508 L 492 476 L 491 475 L 491 472 L 486 464 L 481 461 L 479 461 L 475 459 L 464 459 L 463 460 L 457 461 Z M 480 489 L 478 494 L 474 498 L 470 500 L 462 500 L 458 497 L 458 495 L 457 494 L 458 490 L 462 488 L 473 488 L 475 487 Z M 710 444 L 710 456 L 729 456 L 731 458 L 731 508 L 744 508 L 744 458 L 746 456 L 765 456 L 765 444 Z M 393 444 L 392 445 L 392 507 L 393 508 L 406 508 L 406 489 L 407 488 L 417 488 L 423 499 L 425 501 L 428 508 L 443 508 L 442 504 L 438 499 L 438 497 L 435 494 L 433 489 L 431 487 L 431 486 L 441 477 L 441 475 L 443 471 L 443 460 L 440 453 L 432 446 L 430 445 L 426 445 L 425 444 Z M 405 456 L 406 455 L 420 455 L 421 456 L 426 457 L 430 463 L 430 468 L 429 469 L 429 471 L 425 475 L 423 475 L 422 476 L 406 476 L 405 475 Z M 706 441 L 705 440 L 693 440 L 693 463 L 692 464 L 685 460 L 682 460 L 681 459 L 673 459 L 672 460 L 669 460 L 660 465 L 659 467 L 658 467 L 656 470 L 656 472 L 654 474 L 653 480 L 652 481 L 651 480 L 650 475 L 646 468 L 642 464 L 639 463 L 637 461 L 635 461 L 632 459 L 620 459 L 612 462 L 604 469 L 601 474 L 601 476 L 600 477 L 600 490 L 601 491 L 601 494 L 608 504 L 616 508 L 619 508 L 620 509 L 632 509 L 635 507 L 637 507 L 641 505 L 645 501 L 646 501 L 649 497 L 650 494 L 638 494 L 636 496 L 629 499 L 622 499 L 621 498 L 619 498 L 614 493 L 613 488 L 614 487 L 652 487 L 653 488 L 654 494 L 657 500 L 665 507 L 667 507 L 671 509 L 682 509 L 683 508 L 688 507 L 694 502 L 696 504 L 696 507 L 697 508 L 706 508 Z M 674 470 L 684 470 L 685 471 L 687 471 L 691 475 L 693 479 L 693 490 L 688 496 L 684 498 L 675 498 L 674 497 L 672 497 L 667 492 L 665 488 L 665 480 L 667 476 Z M 613 476 L 619 470 L 621 470 L 622 469 L 629 469 L 630 470 L 633 470 L 638 475 L 639 479 L 638 480 L 614 480 L 613 479 Z M 554 440 L 554 508 L 567 508 L 567 490 L 568 489 L 575 489 L 579 494 L 585 506 L 586 506 L 587 508 L 601 508 L 600 505 L 598 503 L 597 500 L 595 498 L 594 495 L 588 486 L 588 484 L 592 480 L 592 478 L 595 473 L 599 460 L 585 460 L 585 464 L 581 474 L 575 478 L 568 478 L 567 477 L 567 440 Z"/>
</svg>
